<svg xmlns="http://www.w3.org/2000/svg" viewBox="0 0 300 300"><defs><linearGradient id="sky" x2="0" y2="1"><stop stop-color="#143d4a"/><stop offset=".52" stop-color="#3f8a83"/><stop offset="1" stop-color="#e7a35e"/></linearGradient><radialGradient id="glow"><stop stop-color="#fff6b4" stop-opacity=".95"/><stop offset="1" stop-color="#f4d780" stop-opacity="0"/></radialGradient><linearGradient id="path" x2="0" y2="1"><stop stop-color="#d8c08b"/><stop offset="1" stop-color="#3b342e"/></linearGradient></defs><rect width="300" height="300" fill="url(#sky)"/><circle cx="61" cy="57" r="63" fill="url(#glow)"/><path d="M0 125 Q60 95 100 126 T210 112 T300 123 V300 H0Z" fill="#24453f" opacity=".8"/><path d="M0 178 Q60 143 121 177 T300 158 V300 H0Z" fill="#a77e53"/><path d="M100 155 L183 155 L277 300 H18Z" fill="url(#path)"/><path d="M90 0 Q120 38 102 75 M215 0 Q185 42 207 77" stroke="#102b2f" stroke-width="18" opacity=".6" fill="none"/><g transform="translate(57 72)"><ellipse cx="28" cy="29" rx="17" ry="20" fill="#1b2528"/><path d="M11 49 Q28 39 45 50 L53 142 L6 142Z" fill="#132f36"/><path d="M13 140 L9 213 L24 213 L34 150 L42 214 L57 214 L48 140Z" fill="#17252a"/><path d="M10 60 L-1 117 L8 124 L25 78 M44 61 L62 113 L55 121 L36 78" stroke="#172c30" stroke-width="11" fill="none" stroke-linecap="round"/></g><g transform="translate(157 63)"><ellipse cx="34" cy="31" rx="18" ry="21" fill="#5c4030"/><path d="M16 50 Q34 41 52 51 L62 147 L8 147Z" fill="#d8d8c9"/><path d="M12 143 L9 217 L25 217 L35 153 L46 217 L62 217 L56 143Z" fill="#273035"/><path d="M16 62 L0 115 L8 122 L29 79 M52 61 L67 111 L60 120 L42 79" stroke="#c9cdbf" stroke-width="12" fill="none" stroke-linecap="round"/></g><rect width="300" height="300" fill="#071a25" opacity=".16"/></svg>